<?xml version="1.0" encoding="UTF-8"?>
<svg version="1.1" xmlns="http://www.w3.org/2000/svg" width="512" height="512">
<path d="M0 0 C2.8853192 3.58479052 4.31186004 5.55195156 4.31976891 10.13043118 C4.3262178 11.07300414 4.33266669 12.0155771 4.339311 12.98671287 C4.3346652 14.54299741 4.3346652 14.54299741 4.32992554 16.13072205 C4.33445665 17.23146122 4.33898776 18.33220039 4.34365618 19.4662953 C4.35636926 23.17410545 4.35467533 26.88177001 4.35302734 30.58959961 C4.35900851 33.2404943 4.36575616 35.89137738 4.37338257 38.54226685 C4.3900124 45.00893455 4.39549313 51.47556581 4.39660732 57.94225311 C4.39755745 63.20190512 4.40166599 68.4615451 4.40800858 73.72119331 C4.42563121 88.63915722 4.43484657 103.55709233 4.43334763 118.47506671 C4.43326772 119.27969362 4.4331878 120.08432053 4.43310547 120.91333008 C4.43302371 121.71894245 4.43294195 122.52455482 4.43285771 123.35457969 C4.4320459 136.39254908 4.45115432 149.43040263 4.4793822 162.46833854 C4.5081494 175.86140668 4.52192019 189.25441842 4.52019465 202.64751822 C4.51953177 210.16417518 4.52497833 217.68071093 4.54655075 225.19734001 C4.56481374 231.60195924 4.56906861 238.00640241 4.5555319 244.41103648 C4.54902605 247.67538999 4.55099458 250.93933818 4.5662384 254.20367241 C4.5817358 257.75322129 4.57235164 261.30189437 4.55697632 264.85142517 C4.56726344 265.8688717 4.57755057 266.88631823 4.58814943 267.93459648 C4.44703531 282.75611325 -2.04426659 294.66304592 -12.0625 305.25 C-30.47331015 322.83420235 -52.62009319 327.23100588 -77.1953125 326.87890625 C-98.91278321 326.15499056 -118.41539687 317.18106863 -133.45703125 301.48828125 C-137.37705564 296.86450446 -140.32957189 292.02354604 -142.9375 286.5625 C-143.29714844 285.81097656 -143.65679687 285.05945313 -144.02734375 284.28515625 C-148.18193394 273.39132299 -147.57340396 257.90716535 -143.25 247.21875 C-133.85899006 228.21313464 -118.60341142 216.80871185 -98.95703125 209.7890625 C-74.00401282 201.75788385 -48.78562865 206.13843568 -25.9375 217.5625 C-25.9375 177.3025 -25.9375 137.0425 -25.9375 95.5625 C-65.35913463 112.33811177 -65.35913463 112.33811177 -104.74987793 129.18563843 C-108.04422662 130.5994483 -111.33897644 132.01232048 -114.63378906 133.42504883 C-120.51637607 135.94748046 -126.39868177 138.47056722 -132.28088379 140.99389648 C-141.88607243 145.11429956 -151.49140729 149.23436113 -161.09737968 153.35293674 C-165.33849133 155.17136739 -169.57919805 156.99074014 -173.81982422 158.81030273 C-176.04132571 159.76289408 -178.26284187 160.71545121 -180.484375 161.66796875 C-181.46945038 162.09088196 -182.45452576 162.51379517 -183.4694519 162.94952393 C-186.2902001 164.15844617 -189.1133773 165.36148387 -191.9375 166.5625 C-193.02921509 167.02951324 -194.12093018 167.49652649 -195.24572754 167.97769165 C-196.32898315 168.43662811 -197.41223877 168.89556458 -198.52832031 169.3684082 C-199.51552063 169.78830521 -200.50272095 170.20820221 -201.51983643 170.64082336 C-203.9375 171.5625 -203.9375 171.5625 -205.9375 171.5625 C-205.93381283 172.55641628 -205.93012566 173.55033257 -205.92632675 174.57436752 C-205.83742453 198.78796995 -205.77174766 223.00155113 -205.73025131 247.21528244 C-205.70964925 258.92499349 -205.68157365 270.63459655 -205.63574219 282.34423828 C-205.59580235 292.55349688 -205.57005007 302.76267725 -205.56114602 312.9720118 C-205.5559434 318.37495121 -205.54376439 323.77766685 -205.51457977 329.18053436 C-205.48729777 334.27274783 -205.47908077 339.36464673 -205.48506927 344.45692635 C-205.48397474 346.31924464 -205.47609745 348.18157418 -205.4606781 350.04382896 C-205.31719978 368.27666173 -209.21856791 381.6769364 -222.0625 395.25 C-240.76261064 413.11051383 -263.12867249 417.23055493 -288.046875 416.875 C-296.21538985 416.60964489 -303.24596809 415.35469084 -310.9375 412.5625 C-312.15308594 412.12679688 -313.36867188 411.69109375 -314.62109375 411.2421875 C-332.64322385 404.14197263 -345.70138526 391.6549679 -354.03125 374.28125 C-358.17614851 363.38170205 -357.57482098 347.91066854 -353.25 337.21875 C-343.85899006 318.21313464 -328.60341142 306.80871185 -308.95703125 299.7890625 C-287.3313952 292.82880849 -261.91332899 294.43509716 -241.66601562 304.66748047 C-240.59146118 305.20919891 -239.51690674 305.75091736 -238.40979004 306.30905151 C-237.59393433 306.72268951 -236.77807861 307.13632751 -235.9375 307.5625 C-235.94118717 306.47543951 -235.94487434 305.38837902 -235.94867325 304.2683773 C-236.03743626 277.82870768 -236.10318629 251.38905736 -236.14474869 224.94927025 C-236.16538172 212.16322919 -236.19351664 199.37728651 -236.23925781 186.59130859 C-236.2791027 175.44821089 -236.30492742 164.30518443 -236.31385398 153.16201746 C-236.31907266 147.26072728 -236.33135417 141.35964091 -236.36042023 135.45841599 C-236.38755203 129.90495203 -236.39594942 124.35177604 -236.38993073 118.79825211 C-236.39103195 116.75925889 -236.39899898 114.72025613 -236.4143219 112.68132019 C-236.43421464 109.8979814 -236.42944166 107.11573075 -236.41851807 104.33236694 C-236.43599512 103.12126096 -236.43599512 103.12126096 -236.45382524 101.88568819 C-236.39839539 96.66281134 -235.37231156 93.71949107 -231.9375 89.5625 C-229.77441406 88.02880859 -229.77441406 88.02880859 -227.203125 86.8359375 C-226.13384766 86.33803711 -225.06457031 85.84013672 -223.96289062 85.32714844 C-222.62269379 84.73529582 -221.280714 84.14747285 -219.9375 83.5625 C-219.12853271 83.20853149 -218.31956543 82.85456299 -217.48608398 82.48986816 C-211.39486127 79.83718528 -205.28092735 77.23952335 -199.16070557 74.65457153 C-193.74330669 72.36627862 -188.33045363 70.06727525 -182.91704178 67.7695713 C-181.02788165 66.96791169 -179.13851976 66.16672921 -177.24911499 65.36564636 C-164.17208455 59.82002649 -151.11613067 54.22545242 -138.0625 48.625 C-135.74398987 47.63058724 -133.4254677 46.63620256 -131.10693359 45.6418457 C-127.6065694 44.1405913 -124.10623125 42.63927639 -120.60598755 41.13774109 C-112.70085575 37.74677936 -104.79437349 34.35898553 -96.88702965 30.97318649 C-63.02393497 16.47699444 -63.02393497 16.47699444 -29.21484375 1.85546875 C-8.57541456 -7.11576953 -8.57541456 -7.11576953 0 0 Z " fill="#FF5F96" transform="translate(507.9375,95.4375)"/>
<path d="M0 0 C0 31.02 0 62.04 0 94 C-8.70375 97.733125 -17.4075 101.46625 -26.375 105.3125 C-29.06188965 106.46532471 -31.7487793 107.61814941 -34.51708984 108.8059082 C-40.44121481 111.34679406 -46.36733486 113.88299445 -52.2947998 116.41607666 C-54.79932544 117.48639818 -57.30325031 118.55810903 -59.8067627 119.63079834 C-63.44483127 121.18923664 -67.0855558 122.74140646 -70.7265625 124.29296875 C-71.8353476 124.76857742 -72.94413269 125.2441861 -74.08651733 125.73420715 C-75.10033478 126.16505112 -76.11415222 126.59589508 -77.15869141 127.03979492 C-78.04891998 127.41988205 -78.93914856 127.79996918 -79.85635376 128.1915741 C-82 129 -82 129 -84 129 C-83.99631283 129.99391628 -83.99262566 130.98783257 -83.98882675 132.01186752 C-83.89992453 156.22546995 -83.83424766 180.43905113 -83.79275131 204.65278244 C-83.77214925 216.36249349 -83.74407365 228.07209655 -83.69824219 239.78173828 C-83.65830235 249.99099688 -83.63255007 260.20017725 -83.62364602 270.4095118 C-83.6184434 275.81245121 -83.60626439 281.21516685 -83.57707977 286.61803436 C-83.54979777 291.71024783 -83.54158077 296.80214673 -83.54756927 301.89442635 C-83.54647474 303.75674464 -83.53859745 305.61907418 -83.5231781 307.48132896 C-83.37969978 325.71416173 -87.28106791 339.1144364 -100.125 352.6875 C-118.82511064 370.54801383 -141.19117249 374.66805493 -166.109375 374.3125 C-174.27788985 374.04714489 -181.30846809 372.79219084 -189 370 C-190.21558594 369.56429688 -191.43117187 369.12859375 -192.68359375 368.6796875 C-210.70572385 361.57947263 -223.76388526 349.0924679 -232.09375 331.71875 C-236.23864851 320.81920205 -235.63732098 305.34816854 -231.3125 294.65625 C-221.92149006 275.65063464 -206.66591142 264.24621185 -187.01953125 257.2265625 C-165.3938952 250.26630849 -139.97582899 251.87259716 -119.72851562 262.10498047 C-118.65396118 262.64669891 -117.57940674 263.18841736 -116.47229004 263.74655151 C-115.65643433 264.16018951 -114.84057861 264.57382751 -114 265 C-114.00368717 263.91293951 -114.00737434 262.82587902 -114.01117325 261.7058773 C-114.09993626 235.26620768 -114.16568629 208.82655736 -114.20724869 182.38677025 C-114.22788172 169.60072919 -114.25601664 156.81478651 -114.30175781 144.02880859 C-114.3416027 132.88571089 -114.36742742 121.74268443 -114.37635398 110.59951746 C-114.38157266 104.69822728 -114.39385417 98.79714091 -114.42292023 92.89591599 C-114.45005203 87.34245203 -114.45844942 81.78927604 -114.45243073 76.23575211 C-114.45353195 74.19675889 -114.46149898 72.15775613 -114.4768219 70.11882019 C-114.49671464 67.3354814 -114.49194166 64.55323075 -114.48101807 61.76986694 C-114.49266943 60.96246295 -114.5043208 60.15505896 -114.51632524 59.32318819 C-114.46093286 54.10384214 -113.45156497 51.14160453 -110 47 C-107.38894653 45.27679443 -107.38894653 45.27679443 -104.46923828 43.93652344 C-103.40433167 43.44051636 -102.33942505 42.94450928 -101.24224854 42.43347168 C-100.17230652 41.96042603 -99.1023645 41.48738037 -98 41 C-96.58192047 40.36535828 -96.58192047 40.36535828 -95.13519287 39.71789551 C-92.26490521 38.45702745 -89.3816557 37.23185878 -86.4921875 36.015625 C-85.42306122 35.56177933 -84.35393494 35.10793365 -83.25241089 34.64033508 C-79.79476162 33.173351 -76.33492904 31.711598 -72.875 30.25 C-69.26158539 28.71915573 -65.64869754 27.18707362 -62.03588867 25.65480042 C-59.59807797 24.62088348 -57.16008926 23.58738616 -54.72192383 22.55430603 C-46.86412354 19.22286179 -39.01739781 15.86670279 -31.1796875 12.48828125 C-30.19656586 12.06487457 -29.21344421 11.6414679 -28.20053101 11.20523071 C-24.47213358 9.59916089 -20.74386396 7.99284201 -17.01849365 6.37976074 C-14.50843377 5.29306907 -11.99659551 4.2105913 -9.484375 3.12890625 C-8.37894852 2.64784172 -8.37894852 2.64784172 -7.25119019 2.15705872 C-2.22724955 0 -2.22724955 0 0 0 Z " fill="#FF8FB7" transform="translate(386,138)"/>
<path d="M0 0 C3.3104324 1.72718212 5.48647092 4.27301698 8 7 C9.08954836 8.07073355 10.18513418 9.13534203 11.28515625 10.1953125 C17.59519142 16.30962804 23.49847267 22.55142424 28.94921875 29.45703125 C30.91461075 31.89411732 32.98062823 34.15786174 35.125 36.4375 C41.74168505 43.70310688 47.44407567 51.71633507 53.25634766 59.62744141 C54.74030388 61.64663584 56.23379152 63.65820991 57.73046875 65.66796875 C81.58823901 98.03308703 103.54934685 136.74634606 98.73193359 178.31298828 C94.86391232 200.76064215 79.11945732 224.51430535 62 239 C56.85780475 240.71406508 51.25169362 240.90067745 46.1875 238.875 C39.42307692 233.07692308 39.42307692 233.07692308 38.44140625 228.2578125 C38.09366608 222.67977624 38.53342508 218.85133412 42 214.375 C43.31293647 212.89827669 44.64709205 211.44019234 46 210 C52.4050915 202.55073851 57.54545652 194.7264239 62 186 C62.53238281 184.95972656 63.06476563 183.91945312 63.61328125 182.84765625 C70.38232805 167.72694043 67.44970966 152.38858036 61.92822266 137.36035156 C59.42181996 130.9868899 56.30911471 124.986639 53 119 C52.25643351 117.62504159 51.51294508 116.25004096 50.76953125 114.875 C46.25987678 106.62449274 41.3898809 98.71136519 36 91 C35.62262695 90.45666016 35.24525391 89.91332031 34.85644531 89.35351562 C27.79473156 79.20917007 20.3290086 69.38364658 12.41133118 59.89099121 C11.61559189 58.93696411 10.8198526 57.98293701 10 57 C9.99945523 58.14245273 9.99891047 59.28490545 9.99834919 60.46197796 C9.98393925 88.28952134 9.94086235 116.11690856 9.86790943 143.94436169 C9.86097808 146.6259121 9.85415304 149.30746277 9.84741211 151.98901367 C9.84573305 152.65550135 9.84405398 153.32198902 9.84232404 154.00867329 C9.81570369 164.77959844 9.80656253 175.55047036 9.80395857 186.32142504 C9.80089174 197.38551488 9.77849155 208.44944628 9.73947543 219.51346761 C9.71818448 225.72292649 9.70552493 231.93212687 9.71384621 238.14162254 C9.72141079 243.9931801 9.70546505 249.84421492 9.67193985 255.6956768 C9.66373568 257.83651439 9.66392204 259.97740423 9.67340279 262.11823654 C9.750637 281.4847968 5.96603292 294.65286284 -7.625 309.125 C-25.94880022 326.73130202 -48.63969971 330.65455176 -73.1015625 330.31640625 C-81.25547971 330.05255759 -88.31481144 328.75115318 -96 326 C-97.05703125 325.63777344 -98.1140625 325.27554687 -99.203125 324.90234375 C-116.18970304 318.47793282 -130.15216275 306.43350536 -138 290 C-138.35964844 289.24847656 -138.71929687 288.49695313 -139.08984375 287.72265625 C-143.24443394 276.82882299 -142.63590396 261.34466535 -138.3125 250.65625 C-128.92149006 231.65063464 -113.66591142 220.24621185 -94.01953125 213.2265625 C-72.61482768 206.34266457 -48.21216174 208.00735749 -28.05078125 217.65234375 C-27.36777954 217.97521362 -26.68477783 218.2980835 -25.9810791 218.6307373 C-24.31906805 219.41701037 -22.65929296 220.20800697 -21 221 C-21.00368717 219.91293951 -21.00737434 218.82587902 -21.01117325 217.7058773 C-21.09993626 191.26620768 -21.16568629 164.82655736 -21.20724869 138.38677025 C-21.22788172 125.60072919 -21.25601664 112.81478651 -21.30175781 100.02880859 C-21.3416027 88.88571089 -21.36742742 77.74268443 -21.37635398 66.59951746 C-21.38157266 60.69822728 -21.39385417 54.79714091 -21.42292023 48.89591599 C-21.45005203 43.34245203 -21.45844942 37.78927604 -21.45243073 32.23575211 C-21.45353195 30.19675889 -21.46149898 28.15775613 -21.4768219 26.11882019 C-21.49671464 23.3354814 -21.49194166 20.55323075 -21.48101807 17.76986694 C-21.49266943 16.96246295 -21.5043208 16.15505896 -21.51632524 15.32318819 C-21.46086375 10.09732969 -20.43426306 7.15952735 -17 3 C-11.76807739 -1.02455586 -6.34695914 -1.10091801 0 0 Z " fill="#6B77E8" transform="translate(141,0)"/>
<path d="M0 0 C0 32.34 0 64.68 0 98 C-13.51824818 104.75912409 -13.51824818 104.75912409 -19.4375 106.3125 C-21.13712891 106.77076172 -21.13712891 106.77076172 -22.87109375 107.23828125 C-39.50323234 111.28730375 -58.84068314 110.78473197 -75 105 C-76.05703125 104.63777344 -77.1140625 104.27554688 -78.203125 103.90234375 C-95.18970304 97.47793282 -109.15216275 85.43350536 -117 69 C-117.35964844 68.24847656 -117.71929687 67.49695313 -118.08984375 66.72265625 C-122.24443394 55.82882299 -121.63590396 40.34466535 -117.3125 29.65625 C-107.92149006 10.65063464 -92.66591142 -0.75378815 -73.01953125 -7.7734375 C-47.68071555 -15.92257259 -23.40466547 -10.92217722 0 0 Z " fill="#979FEF" transform="translate(120,221)"/>
<path d="M0 0 C0.66 0.33 1.32 0.66 2 1 C-0.31 3.31 -2.62 5.62 -5 8 C-5 5 -5 5 -2.5 2.3125 C-1.675 1.549375 -0.85 0.78625 0 0 Z " fill="#7680EC" transform="translate(127,1)"/>
</svg>
